#!OML:ASF H:\Terrain\Patient Classification 1\Walking\steve\steve.ASF
:FULLY-SPECIFIED
:DEGREES
1
root 6.60642 14.6443 -44.2736 9.27349 -8.55652 -8.00696
lowerback -0.270613 5.18556 8.04478
upperback -2.72645 7.0401 1.60542
thorax -1.92249 3.37212 -2.85442
lowerneck -10.9783 -2.34232 -2.59814
upperneck 13.0451 -3.12464 2.64782
head 5.83225 -1.44817 1.00238
rclavicle -5.34482e-014 2.98177e-014
rhumerus -24.7212 9.01377 -87.3528
rradius 62.2011
rwrist -8.32734
rhand -21.3306 -32.3623
rfingers 7.12502
rthumb 5.05512 -62.282
lclavicle -5.34482e-014 2.98177e-014
lhumerus -61.1513 32.1284 44.174
lradius 5.05436
lwrist -44.2769
lhand -24.0954 -10.0724
lfingers 7.12502
lthumb 2.38521 19.894
rfemur 16.9247 2.86595 31.6928
rtibia -3.18055e-015
rfoot 0 0
rtoes 0
lfemur -48.4603 0.751287 -6.89411
ltibia 29.685
lfoot -22.8584 8.01329
ltoes -13.3047
2
root 6.62573 14.6454 -44.0014 9.37329 -9.20648 -7.67763
lowerback -0.660468 5.44684 7.59357
upperback -2.9569 7.35433 1.34879
thorax -1.93008 3.53104 -2.84111
lowerneck -10.1057 -2.27285 -2.54343
upperneck 12.9156 -3.10866 3.01072
head 5.64732 -1.41927 1.11816
rclavicle -6.04119e-014 -9.59136e-015
rhumerus -25.2654 8.97489 -87.454
rradius 62.967
rwrist -8.4285
rhand -21.8495 -31.9415
rfingers 7.12502
rthumb 4.55413 -61.8725
lclavicle -6.04119e-014 -9.59136e-015
lhumerus -61.8262 31.1978 43.668
lradius 4.78005
lwrist -43.4125
lhand -23.8825 -9.4739
lfingers 7.12502
lthumb 2.5908 20.4901
rfemur 17.7235 3.54111 30.9711
rtibia -2.22639e-014
rfoot 0 0
rtoes 0
lfemur -48.1829 0.982425 -7.20011
ltibia 29.0153
lfoot -23.1101 6.64114
ltoes -9.3164
3
root 6.6388 14.661 -43.7304 9.22843 -9.8407 -6.72921
lowerback -0.753145 5.52976 6.42204
upperback -2.87357 7.4398 1.01219
thorax -1.87663 3.59967 -2.53784
lowerneck -9.87607 -2.30613 -2.08834
upperneck 12.0945 -3.15094 2.59386
head 5.33927 -1.4545 0.914688
rclavicle 6.57123e-014 1.16786e-015
rhumerus -25.2127 9.09087 -87.5034
rradius 63.5729
rwrist -8.26985
rhand -22.3284 -31.4795
rfingers 7.12502
rthumb 4.09167 -61.42
lclavicle 6.57123e-014 1.16786e-015
lhumerus -62.1111 31.0936 43.2798
lradius 4.18943
lwrist -42.3172
lhand -23.7107 -9.50662
lfingers 7.12502
lthumb 2.75679 20.4553
rfemur 18.7272 4.14867 29.4534
rtibia -7.31528e-014
rfoot 0 0
rtoes 0
lfemur -47.3678 0.78308 -8.08977
ltibia 28.2479
lfoot -23.423 5.34123
ltoes -3.661
4
root 6.65659 14.6616 -43.46 9.07629 -9.70882 -6.15965
lowerback -0.823056 5.31653 5.79918
upperback -2.73736 7.13824 0.83476
thorax -1.77137 3.46606 -2.37231
lowerneck -11.2493 -2.35037 -2.78846
upperneck 13.0413 -3.21539 3.43305
head 5.8959 -1.43999 1.27098
rclavicle -1.28436e-014 2.84798e-014
rhumerus -24.9042 9.24998 -87.5116
rradius 63.8932
rwrist -7.8465
rhand -22.7477 -30.5394
rfingers 7.12502
rthumb 3.68674 -60.4873
lclavicle -1.28436e-014 2.84798e-014
lhumerus -62.1824 31.4611 42.943
lradius 3.2248
lwrist -41.2165
lhand -23.7354 -7.49891
lfingers 7.12502
lthumb 2.73289 22.4633
rfemur 19.6457 4.03885 28.5192
rtibia 3.18055e-015
rfoot 0 0
rtoes 0
lfemur -46.5802 -0.284624 -8.3611
ltibia 27.7497
lfoot -23.5579 4.08928
ltoes 1.76785
5
root 6.67515 14.6551 -43.184 8.96634 -9.36517 -5.88465
lowerback -1.07406 5.11681 5.62866
upperback -2.90284 6.85765 0.677517
thorax -1.82475 3.3236 -2.42937
lowerneck -9.99991 -2.49308 -2.4632
upperneck 12.1636 -3.41766 3.11041
head 5.40385 -1.56468 1.11485
rclavicle 4.55729e-014 2.32081e-014
rhumerus -25.4141 9.13364 -87.682
rradius 64.238
rwrist -7.54948
rhand -22.8079 -29.763
rfingers 7.12502
rthumb 3.62857 -59.7118
lclavicle 4.55729e-014 2.32081e-014
lhumerus -62.7918 31.0912 42.3491
lradius 2.4976
lwrist -40.0378
lhand -23.5312 -5.42251
lfingers 7.12502
lthumb 2.9301 24.5371
rfemur 20.5885 3.75894 27.9451
rtibia 3.18055e-015
rfoot 0 0
rtoes 0
lfemur -45.9063 0.340318 -9.69099
ltibia 27.4141
lfoot -21.2054 2.99061
ltoes 4.04931
6
root 6.68373 14.6386 -42.9138 8.73833 -9.37322 -5.58443
lowerback -1.13596 5.39648 5.2662
upperback -3.51625 7.24156 0.239333
thorax -2.38165 3.493 -2.70434
lowerneck -6.91417 -2.82243 -1.34496
upperneck 10.7443 -3.97791 2.82642
head 4.43422 -1.84991 0.852989
rclavicle 1.10004e-013 4.31363e-014
rhumerus -27.3289 7.5804 -87.9973
rradius 64.8952
rwrist -7.22581
rhand -22.7798 -29.3834
rfingers 7.12502
rthumb 3.65572 -59.3318
lclavicle 1.10004e-013 4.31363e-014
lhumerus -63.254 28.9998 41.9641
lradius 2.40573
lwrist -39.0738
lhand -22.4326 -2.35505
lfingers 7.12502
lthumb 3.99103 27.5873
rfemur 21.673 3.77041 27.4173
rtibia -2.8625e-014
rfoot 0 0
rtoes 0
lfemur -45.3322 2.14726 -11.7551
ltibia 27.6471
lfoot -17.4024 2.93779
ltoes 4.17993
7
root 6.68839 14.6483 -42.6495 8.53401 -9.08147 -5.35305
lowerback -0.937685 5.28748 4.79689
upperback -3.70506 7.10994 0.117234
thorax -2.73774 3.4249 -2.60932
lowerneck -6.57159 -2.85417 -1.23256
upperneck 10.4219 -4.04608 2.97365
head 4.75588 -1.88463 0.9826
rclavicle 1.18749e-013 4.47266e-014
rhumerus -28.3442 7.09323 -88.1106
rradius 65.4561
rwrist -7.3213
rhand -23.0802 -29.2341
rfingers 7.12502
rthumb 3.36562 -59.1872
lclavicle 1.18749e-013 4.47266e-014
lhumerus -63.5371 28.5246 41.6717
lradius 1.99703
lwrist -38.5371
lhand -20.9807 1.62214
lfingers 7.12502
lthumb 5.39299 31.5335
rfemur 22.4801 3.57141 26.835
rtibia -4.77083e-014
rfoot 0 0
rtoes 0
lfemur -45.0758 3.30925 -13.2478
ltibia 28.2961
lfoot -13.1078 4.50149
ltoes -0.615513
8
root 6.69961 14.7091 -42.3619 8.43057 -8.76271 -4.93825
lowerback -1.10427 4.96858 4.21329
upperback -3.65043 6.66868 0.117159
thorax -2.6838 3.22253 -2.27605
lowerneck -7.04636 -2.67764 -1.61081
upperneck 11.1599 -3.84158 3.47869
head 4.59863 -1.75066 1.10058
rclavicle -2.0019e-014 -1.39149e-014
rhumerus -28.7939 7.32401 -88.1517
rradius 65.6779
rwrist -7.73076
rhand -23.2123 -29.2495
rfingers 7.12502
rthumb 3.23805 -59.2046
lclavicle -2.0019e-014 -1.39149e-014
lhumerus -64.0361 28.926 41.2556
lradius 1.48425
lwrist -38.0751
lhand -19.1528 5.43439
lfingers 7.12502
lthumb 7.15765 35.2934
rfemur 23.0606 3.34778 26.0543
rtibia 1.59028e-014
rfoot 0 0
rtoes 0
lfemur -45.2795 4.23418 -14.7864
ltibia 29.364
lfoot -7.60084 6.80538
ltoes -21.2928
